{"scene":0,"asset":{"generator":"ImageToStl.com","version":"2.0"},"scenes":[{"name":"Scene","nodes":[0]}],"nodes":[{"name":"Node0","children":[1,2]},{"name":"Node1","mesh":0},{"name":"Node2","mesh":1}],"materials":[{"name":"greenbook","pbrMetallicRoughness":{"baseColorFactor":[0.8,0.8,0.8,1.0],"metallicFactor":0.5,"roughnessFactor":0.75},"emissiveFactor":[0.0,0.0,0.0],"doubleSided":true},{"name":"x1","pbrMetallicRoughness":{"baseColorFactor":[0.0,0.0,0.0,1.0],"metallicFactor":0.0,"roughnessFactor":1.0},"doubleSided":true}],"meshes":[{"name":"Mesh0","primitives":[{"indices":3,"material":0,"attributes":{"POSITION":0,"NORMAL":1,"TEXCOORD_0":2}}]},{"name":"Mesh0","primitives":[{"indices":7,"material":1,"attributes":{"POSITION":4,"NORMAL":5,"TEXCOORD_0":6}}]}],"accessors":[{"bufferView":0,"componentType":5126,"count":324,"type":"VEC3","min":[-0.120723784,-0.16170144,-0.02728718],"max":[0.12066732,0.16170141,0.02728718]},{"bufferView":1,"componentType":5126,"count":324,"type":"VEC3"},{"bufferView":2,"componentType":5126,"count":324,"type":"VEC2"},{"bufferView":3,"componentType":5123,"count":3708,"type":"SCALAR"},{"bufferView":4,"componentType":5126,"count":324,"type":"VEC3","min":[-0.12595499,-0.15020888,0.02728718],"max":[0.13005212,0.1501963,0.0706663]},{"bufferView":5,"componentType":5126,"count":324,"type":"VEC3"},{"bufferView":6,"componentType":5126,"count":324,"type":"VEC2"},{"bufferView":7,"componentType":5123,"count":3708,"type":"SCALAR"}],"bufferViews":[{"target":34962,"buffer":0,"byteLength":3888,"byteOffset":0},{"target":34962,"buffer":0,"byteLength":3888,"byteOffset":3888},{"target":34962,"buffer":0,"byteLength":2592,"byteOffset":7776},{"target":34963,"buffer":0,"byteLength":7416,"byteOffset":10368},{"target":34962,"buffer":0,"byteLength":3888,"byteOffset":17784},{"target":34962,"buffer":0,"byteLength":3888,"byteOffset":21672},{"target":34962,"buffer":0,"byteLength":2592,"byteOffset":25560},{"target":34963,"buffer":0,"byteLength":7416,"byteOffset":28152}],"buffers":[{"byteLength":35568,"uri":"data:application/octet-stream;base64,"}]}